<svg id="visual" viewBox="0 0 1440 1050" width="100%" height="100%" xmlns="http://www.w3.org/2000/svg" xmlns:xlink="http://www.w3.org/1999/xlink" version="1.1"><rect x="0" y="0" width="1540" height="1000" fill="#FFFFFF"></rect><defs><linearGradient id="grad1_0" x1="27.1%" y1="0%" x2="100%" y2="100%"><stop offset="22.571428571428573%" stop-color="#25ced1" stop-opacity="1"></stop><stop offset="77.42857142857143%" stop-color="#25ced1" stop-opacity="1"></stop></linearGradient></defs><defs><linearGradient id="grad1_1" x1="27.1%" y1="0%" x2="100%" y2="100%"><stop offset="22.571428571428573%" stop-color="#25ced1" stop-opacity="1"></stop><stop offset="77.42857142857143%" stop-color="#ffffff" stop-opacity="1"></stop></linearGradient></defs><defs><linearGradient id="grad2_0" x1="0%" y1="0%" x2="72.9%" y2="100%"><stop offset="22.571428571428573%" stop-color="#25ced1" stop-opacity="1"></stop><stop offset="77.42857142857143%" stop-color="#25ced1" stop-opacity="1"></stop></linearGradient></defs><defs><linearGradient id="grad2_1" x1="0%" y1="0%" x2="72.9%" y2="100%"><stop offset="22.571428571428573%" stop-color="#ffffff" stop-opacity="1"></stop><stop offset="77.42857142857143%" stop-color="#25ced1" stop-opacity="1"></stop></linearGradient></defs><g transform="translate(1440, 0)"><path d="M0 846.5C-160.7 831.7 -321.4 816.9 -423.3 733.1C-525.1 649.4 -568 496.7 -628.7 363C-689.5 229.3 -768 114.7 -846.5 0L0 0Z" fill="#a9e7e8"></path><path d="M0 423.3C-80.4 415.8 -160.7 408.4 -211.6 366.6C-262.5 324.7 -284 248.3 -314.4 181.5C-344.7 114.7 -384 57.3 -423.3 0L0 0Z" fill="#25ced1"></path></g><g transform="translate(0, 1050)"><path d="M0 -846.5C158.9 -830.6 317.7 -814.7 423.3 -733.1C528.8 -651.5 580.9 -504.1 642.6 -371C704.2 -237.9 775.4 -118.9 846.5 0L0 0Z" fill="#a9e7e8"></path><path d="M0 -423.3C79.4 -415.3 158.9 -407.4 211.6 -366.6C264.4 -325.7 290.5 -252.1 321.3 -185.5C352.1 -118.9 387.7 -59.5 423.3 0L0 0Z" fill="#25ced1"></path></g></svg>